HIERARCHY
ROOT hip
{
  OFFSET 0 90.174 2.4664
  CHANNELS 6 Xposition Yposition Zposition Zrotation Xrotation Yrotation
  JOINT abdomen
  {
    OFFSET 0 -1.186 -1.5018
    CHANNELS 6 Xposition Yposition Zposition Zrotation Xrotation Yrotation
    JOINT abdomen2
    {
      OFFSET 0 9.964 0.2134
      CHANNELS 6 Xposition Yposition Zposition Zrotation Xrotation Yrotation
      JOINT chest
      {
        OFFSET 0 13.134 -3.2573
        CHANNELS 6 Xposition Yposition Zposition Zrotation Xrotation Yrotation
        JOINT neck
        {
          OFFSET 0 20.686 -1.6905
          CHANNELS 6 Xposition Yposition Zposition Zrotation Xrotation Yrotation
          JOINT head
          {
            OFFSET 0 7.238 -0.1237
            CHANNELS 6 Xposition Yposition Zposition Zrotation Xrotation Yrotation
            End Site
            {
              OFFSET 0 0 0
            }
          }
        }
        JOINT lCollar
        {
          OFFSET 1.7069 20.075 5.0056
          CHANNELS 6 Xposition Yposition Zposition Zrotation Xrotation Yrotation
          JOINT lShldr
          {
            OFFSET 13.6458 -0.047 -4.849
            CHANNELS 6 Xposition Yposition Zposition Zrotation Xrotation Yrotation
            JOINT lForeArm
            {
              OFFSET 28.3255 -0.9759 2.2888
              CHANNELS 6 Xposition Yposition Zposition Zrotation Xrotation Yrotation
              JOINT lHand
              {
                OFFSET 22.1583 -0.53 10.8316
                CHANNELS 6 Xposition Yposition Zposition Zrotation Xrotation Yrotation
                JOINT lThumb1
                {
                  OFFSET 0.786 0.112 2.5817
                  CHANNELS 6 Xposition Yposition Zposition Zrotation Xrotation Yrotation
                  JOINT lThumb2
                  {
                    OFFSET 0.3601 -0.878 4.2331
                    CHANNELS 6 Xposition Yposition Zposition Zrotation Xrotation Yrotation
                    JOINT lThumb2_End
                    {
                      OFFSET 1.8127 -1.216 2.2227
                      CHANNELS 6 Xposition Yposition Zposition Zrotation Xrotation Yrotation
                      End Site
                      {
                        OFFSET 0.0181 -0.0122 0.0222
                      }
                    }
                  }
                }
                JOINT lCarpal1
                {
                  OFFSET 0.9571 1.114 1.7695
                  CHANNELS 6 Xposition Yposition Zposition Zrotation Xrotation Yrotation
                  JOINT lIndex1
                  {
                    OFFSET 4.1246 0.487 4.1451
                    CHANNELS 6 Xposition Yposition Zposition Zrotation Xrotation Yrotation
                    JOINT lIndex2
                    {
                      OFFSET 3.4052 -1.454 2.7682
                      CHANNELS 6 Xposition Yposition Zposition Zrotation Xrotation Yrotation
                      JOINT lIndex2_End
                      {
                        OFFSET 1.4531 -1.795 1.2713
                        CHANNELS 6 Xposition Yposition Zposition Zrotation Xrotation Yrotation
                        End Site
                        {
                          OFFSET 0.0145 -0.0179 0.0127
                        }
                      }
                    }
                  }
                  JOINT lMid1
                  {
                    OFFSET 5.6954 0.21 2.1184
                    CHANNELS 6 Xposition Yposition Zposition Zrotation Xrotation Yrotation
                    JOINT lMid2
                    {
                      OFFSET 3.9766 -1.54 2.3863
                      CHANNELS 6 Xposition Yposition Zposition Zrotation Xrotation Yrotation
                      JOINT lMid2_End
                      {
                        OFFSET 1.4042 -1.926 1.125
                        CHANNELS 6 Xposition Yposition Zposition Zrotation Xrotation Yrotation
                        End Site
                        {
                          OFFSET 0.014 -0.0193 0.0113
                        }
                      }
                    }
                  }
                }
                JOINT lCarpal2
                {
                  OFFSET 2.0956 0.66 -0.3894
                  CHANNELS 6 Xposition Yposition Zposition Zrotation Xrotation Yrotation
                  JOINT lRing1
                  {
                    OFFSET 5.0395 -0.09 2.4971
                    CHANNELS 6 Xposition Yposition Zposition Zrotation Xrotation Yrotation
                    JOINT lRing2
                    {
                      OFFSET 3.7921 -1.552 1.4806
                      CHANNELS 6 Xposition Yposition Zposition Zrotation Xrotation Yrotation
                      JOINT lRing2_End
                      {
                        OFFSET 1.4655 -1.808 0.9609
                        CHANNELS 6 Xposition Yposition Zposition Zrotation Xrotation Yrotation
                        End Site
                        {
                          OFFSET 0.0147 -0.0181 0.0096
                        }
                      }
                    }
                  }
                  JOINT lPinky1
                  {
                    OFFSET 4.9141 -1.269 0.3591
                    CHANNELS 6 Xposition Yposition Zposition Zrotation Xrotation Yrotation
                    JOINT lPinky2
                    {
                      OFFSET 3.1477 -1.685 0.8462
                      CHANNELS 6 Xposition Yposition Zposition Zrotation Xrotation Yrotation
                      JOINT lPinky2_End
                      {
                        OFFSET 0.8055 -1.585 0.7955
                        CHANNELS 6 Xposition Yposition Zposition Zrotation Xrotation Yrotation
                        End Site
                        {
                          OFFSET 0.0081 -0.0158 0.008
                        }
                      }
                    }
                  }
                }
              }
            }
          }
        }
        JOINT rCollar
        {
          OFFSET -1.7069 20.075 5.0056
          CHANNELS 6 Xposition Yposition Zposition Zrotation Xrotation Yrotation
          JOINT rShldr
          {
            OFFSET -13.6458 -0.047 -4.849
            CHANNELS 6 Xposition Yposition Zposition Zrotation Xrotation Yrotation
            JOINT rForeArm
            {
              OFFSET -28.3255 -0.9759 2.2888
              CHANNELS 6 Xposition Yposition Zposition Zrotation Xrotation Yrotation
              JOINT rHand
              {
                OFFSET -22.1583 -0.53 10.8316
                CHANNELS 6 Xposition Yposition Zposition Zrotation Xrotation Yrotation
                JOINT rThumb1
                {
                  OFFSET -0.786 0.112 2.5817
                  CHANNELS 6 Xposition Yposition Zposition Zrotation Xrotation Yrotation
                  JOINT rThumb2
                  {
                    OFFSET -0.3601 -0.878 4.2331
                    CHANNELS 6 Xposition Yposition Zposition Zrotation Xrotation Yrotation
                    JOINT rThumb2_End
                    {
                      OFFSET -1.8127 -1.216 2.2227
                      CHANNELS 6 Xposition Yposition Zposition Zrotation Xrotation Yrotation
                      End Site
                      {
                        OFFSET -0.0181 -0.0122 0.0222
                      }
                    }
                  }
                }
                JOINT rCarpal1
                {
                  OFFSET -0.9571 1.114 1.7695
                  CHANNELS 6 Xposition Yposition Zposition Zrotation Xrotation Yrotation
                  JOINT rIndex1
                  {
                    OFFSET -4.1246 0.487 4.1451
                    CHANNELS 6 Xposition Yposition Zposition Zrotation Xrotation Yrotation
                    JOINT rIndex2
                    {
                      OFFSET -3.4052 -1.454 2.7682
                      CHANNELS 6 Xposition Yposition Zposition Zrotation Xrotation Yrotation
                      JOINT rIndex2_End
                      {
                        OFFSET -1.4531 -1.795 1.2713
                        CHANNELS 6 Xposition Yposition Zposition Zrotation Xrotation Yrotation
                        End Site
                        {
                          OFFSET -0.0145 -0.018 0.0127
                        }
                      }
                    }
                  }
                  JOINT rMid1
                  {
                    OFFSET -5.6954 0.21 2.1184
                    CHANNELS 6 Xposition Yposition Zposition Zrotation Xrotation Yrotation
                    JOINT rMid2
                    {
                      OFFSET -3.9766 -1.54 2.3863
                      CHANNELS 6 Xposition Yposition Zposition Zrotation Xrotation Yrotation
                      JOINT rMid2_End
                      {
                        OFFSET -1.4042 -1.926 1.125
                        CHANNELS 6 Xposition Yposition Zposition Zrotation Xrotation Yrotation
                        End Site
                        {
                          OFFSET -0.014 -0.0193 0.0113
                        }
                      }
                    }
                  }
                }
                JOINT rCarpal2
                {
                  OFFSET -2.0956 0.66 -0.3894
                  CHANNELS 6 Xposition Yposition Zposition Zrotation Xrotation Yrotation
                  JOINT rRing1
                  {
                    OFFSET -5.0395 -0.09 2.4971
                    CHANNELS 6 Xposition Yposition Zposition Zrotation Xrotation Yrotation
                    JOINT rRing2
                    {
                      OFFSET -3.7921 -1.552 1.4806
                      CHANNELS 6 Xposition Yposition Zposition Zrotation Xrotation Yrotation
                      JOINT rRing2_End
                      {
                        OFFSET -1.4655 -1.808 0.9609
                        CHANNELS 6 Xposition Yposition Zposition Zrotation Xrotation Yrotation
                        End Site
                        {
                          OFFSET -0.0147 -0.0181 0.0096
                        }
                      }
                    }
                  }
                  JOINT rPinky1
                  {
                    OFFSET -4.9141 -1.269 0.3592
                    CHANNELS 6 Xposition Yposition Zposition Zrotation Xrotation Yrotation
                    JOINT rPinky2
                    {
                      OFFSET -3.1477 -1.685 0.8462
                      CHANNELS 6 Xposition Yposition Zposition Zrotation Xrotation Yrotation
                      JOINT rPinky2_End
                      {
                        OFFSET -0.8055 -1.585 0.7955
                        CHANNELS 6 Xposition Yposition Zposition Zrotation Xrotation Yrotation
                        End Site
                        {
                          OFFSET -0.0081 -0.0158 0.008
                        }
                      }
                    }
                  }
                }
              }
            }
          }
        }
      }
    }
  }
  JOINT lThigh
  {
    OFFSET 8.367 -8.2066 0.5982
    CHANNELS 6 Xposition Yposition Zposition Zrotation Xrotation Yrotation
    JOINT lShin
    {
      OFFSET 2.1923 -43.463 -0.4932
      CHANNELS 6 Xposition Yposition Zposition Zrotation Xrotation Yrotation
      JOINT lFoot
      {
        OFFSET 0.7333 -45.8593 -2.6451
        CHANNELS 6 Xposition Yposition Zposition Zrotation Xrotation Yrotation
        End Site
        {
          OFFSET 2.6618 -4.2699 12.3931
        }
      }
    }
  }
  JOINT rThigh
  {
    OFFSET -8.367 -8.2066 0.5982
    CHANNELS 6 Xposition Yposition Zposition Zrotation Xrotation Yrotation
    JOINT rShin
    {
      OFFSET -2.1923 -43.463 -0.4931
      CHANNELS 6 Xposition Yposition Zposition Zrotation Xrotation Yrotation
      JOINT rFoot
      {
        OFFSET -0.7333 -45.8593 -2.6451
        CHANNELS 6 Xposition Yposition Zposition Zrotation Xrotation Yrotation
        End Site
        {
          OFFSET -2.6618 -4.2699 12.3931
        }
      }
    }
  }
}
MOTION
Frames:	4
Frame Time:	0.0333333
0 90.174 2.4664 0 0 -0 0 -1.186 -1.5018 0 0 -0 0 9.964 0.2134 0 0 -0 0 13.134 -3.2573 0 0 -0 0 20.686 -1.6905 0 0 -0 0 7.238 -0.1237 0 0 -0 1.7069 20.075 5.0056 0 0 -0 13.6458 -0.047 -4.849 1.66051 0.0835086 5.75766 28.3255 -0.9759 2.2888 -0.0175111 0.895433 15.7816 22.1583 -0.53 10.8316 7.95139e-016 -1.98785e-016 -0 0.786 0.112 2.5817 5.46658e-016 -3.97569e-016 -0 0.3601 -0.878 4.2331 5.96354e-016 0 -0 1.8127 -1.216 2.2227 3.97569e-016 1.98785e-016 9.54166e-015 0.9571 1.114 1.7695 1.49089e-016 -3.97569e-016 -0 4.1246 0.487 4.1451 6.4605e-016 0 3.18055e-015 3.4052 -1.454 2.7682 5.96354e-016 0 3.18055e-015 1.4531 -1.795 1.2713 8.94531e-016 -1.98785e-016 6.36111e-015 5.6954 0.21 2.1184 6.4605e-016 0 3.18055e-015 3.9766 -1.54 2.3863 5.96354e-016 0 3.18055e-015 1.4042 -1.926 1.125 8.94531e-016 -1.98785e-016 6.36111e-015 2.0956 0.66 -0.3894 1.49089e-016 -3.97569e-016 -0 5.0395 -0.09 2.4971 6.4605e-016 0 3.18055e-015 3.7921 -1.552 1.4806 5.96354e-016 0 3.18055e-015 1.4655 -1.808 0.9609 8.94531e-016 -1.98785e-016 6.36111e-015 4.9141 -1.269 0.3591 6.4605e-016 0 3.18055e-015 3.1477 -1.685 0.8462 5.96354e-016 0 3.18055e-015 0.8055 -1.585 0.7955 8.94531e-016 -1.98785e-016 6.36111e-015 -1.7069 20.075 5.0056 0 0 -0 -13.6458 -0.047 -4.849 -1.4496 0.0636048 -5.0245 -28.3255 -0.9759 2.2888 -1.74811 1.20616 -16.8394 -22.1583 -0.53 10.8316 -1.19271e-015 1.98785e-016 -3.18055e-015 -0.786 0.112 2.5817 -3.97569e-016 1.98785e-016 -3.18055e-015 -0.3601 -0.878 4.2331 -2.98177e-016 1.98785e-016 -3.18055e-015 -1.8127 -1.216 2.2227 -2.98177e-016 3.97569e-016 -0 -0.9571 1.114 1.7695 4.96962e-016 0 -6.36111e-015 -4.1246 0.487 4.1451 -9.93923e-017 3.97569e-016 -0 -3.4052 -1.454 2.7682 -8.94531e-016 5.96354e-016 -0 -1.4531 -1.795 1.2713 -3.97569e-016 3.97569e-016 -0 -5.6954 0.21 2.1184 -9.93923e-017 3.97569e-016 -0 -3.9766 -1.54 2.3863 -8.94531e-016 5.96354e-016 -0 -1.4042 -1.926 1.125 -3.97569e-016 3.97569e-016 -0 -2.0956 0.66 -0.3894 4.96962e-016 0 -6.36111e-015 -5.0395 -0.09 2.4971 -9.93923e-017 3.97569e-016 -0 -3.7921 -1.552 1.4806 -8.94531e-016 5.96354e-016 -0 -1.4655 -1.808 0.9609 -3.97569e-016 3.97569e-016 -0 -4.9141 -1.269 0.3592 -9.93923e-017 3.97569e-016 -0 -3.1477 -1.685 0.8462 -8.94531e-016 5.96354e-016 -0 -0.8055 -1.585 0.7955 -3.97569e-016 3.97569e-016 -0 8.367 -8.2066 0.5982 -4.66115 -1.03232 0.120763 2.1923 -43.463 -0.4932 0.00990601 1.55097 0.177175 0.7333 -45.8593 -2.6451 4.65196 -0.54114 -0.255042 -8.367 -8.2066 0.5982 4.66115 -1.03222 -0.120763 -2.1923 -43.463 -0.4931 -0.00990459 1.5509 -0.177176 -0.7333 -45.8593 -2.6451 -4.65196 -0.541171 0.255041 
1.0906 12.5093 -8.47619 -0 -80.21 -0 0 -1.186 -1.5018 -0.0217739 9.17532 -0.13824 0 9.964 0.2134 -0.0211968 18.3507 -0.278364 -2.22045e-016 13.134 -3.2573 -0.0211968 18.3507 -0.278364 0 20.686 -1.6905 0.758825 8.1884 -42.1938 -1.77636e-015 7.238 -0.1237 -0.0887194 0.571788 8.01483 1.7069 20.075 5.0056 -6.89789 -0.197129 7.98871 13.6458 -0.047 -4.849 -61.6984 3.68267 31.3573 28.3255 -0.9759 2.2888 29.2106 4.98237 -50.1584 22.1583 -0.53 10.8316 8.56139 16.9841 -8.45856 0.786 0.112 2.5817 -2.48481e-015 -9.93923e-016 1.90833e-014 0.3601 -0.878 4.2331 -4.22129e-008 -1.7102e-007 2.48975e-006 1.8127 -1.216 2.2227 2.22802e-009 9.55062e-008 3.64006e-007 0.9571 1.114 1.7695 -2.38542e-015 -2.48481e-015 1.27222e-014 4.1246 0.487 4.1451 1.78906e-015 2.48481e-015 1.90833e-014 3.4052 -1.454 2.7682 -4.22129e-008 -1.7102e-007 2.48975e-006 1.4531 -1.795 1.2713 2.22801e-009 9.55062e-008 3.64006e-007 5.6954 0.21 2.1184 1.78906e-015 2.48481e-015 1.90833e-014 3.9766 -1.54 2.3863 -4.22129e-008 -1.7102e-007 2.48975e-006 1.4042 -1.926 1.125 2.22801e-009 9.55062e-008 3.64006e-007 2.0956 0.66 -0.3894 -2.38542e-015 -2.48481e-015 1.27222e-014 5.0395 -0.09 2.4971 1.78906e-015 2.48481e-015 1.90833e-014 3.7921 -1.552 1.4806 -4.22129e-008 -1.7102e-007 2.48975e-006 1.4655 -1.808 0.9609 2.22801e-009 9.55062e-008 3.64006e-007 4.9141 -1.269 0.3591 1.78906e-015 2.48481e-015 1.90833e-014 3.1477 -1.685 0.8462 -4.22129e-008 -1.7102e-007 2.48975e-006 0.8055 -1.585 0.7955 2.22801e-009 9.55062e-008 3.64006e-007 -1.7069 20.075 5.0056 2.77163 -7.3988 6.79573 -13.6458 -0.047 -4.849 51.4998 27.1054 17.5541 -28.3255 -0.9759 2.2888 34.0647 2.88114 39.9226 -22.1583 -0.53 10.8316 -27.5849 -6.06946 -10.1229 -0.786 0.112 2.5817 2.16811e-006 -1.8292e-006 -1.13593e-006 -0.3601 -0.878 4.2331 -3.57812e-015 1.16289e-014 -0 -1.8127 -1.216 2.2227 -1.93296e-006 -7.04747e-006 -3.94706e-006 -0.9571 1.114 1.7695 -7.95139e-016 3.47873e-015 1.59028e-015 -4.1246 0.487 4.1451 2.16811e-006 -1.8292e-006 -1.13593e-006 -3.4052 -1.454 2.7682 -3.97569e-015 1.13307e-014 -1.59028e-015 -1.4531 -1.795 1.2713 -1.93296e-006 -7.04747e-006 -3.94706e-006 -5.6954 0.21 2.1184 2.16811e-006 -1.8292e-006 -1.13593e-006 -3.9766 -1.54 2.3863 -3.97569e-015 1.13307e-014 -1.59028e-015 -1.4042 -1.926 1.125 -1.93296e-006 -7.04747e-006 -3.94706e-006 -2.0956 0.66 -0.3894 -7.95139e-016 3.47873e-015 1.59028e-015 -5.0395 -0.09 2.4971 2.16811e-006 -1.8292e-006 -1.13593e-006 -3.7921 -1.552 1.4806 -3.97569e-015 1.13307e-014 -1.59028e-015 -1.4655 -1.808 0.9609 -1.93296e-006 -7.04747e-006 -3.94706e-006 -4.9141 -1.269 0.3592 2.16811e-006 -1.8292e-006 -1.13593e-006 -3.1477 -1.685 0.8462 -3.97569e-015 1.13307e-014 -1.59028e-015 -0.8055 -1.585 0.7955 -1.93296e-006 -7.04747e-006 -3.94706e-006 8.367 -8.2066 0.5982 5.51404 -37.8091 -10.3525 2.1923 -43.463 -0.4932 -157.49 77.6894 163.296 0.7333 -45.8593 -2.6451 16.7969 1.59032 6.06872 -8.367 -8.2066 0.5982 -33.5683 -40.4058 -7.06035 -2.1923 -43.463 -0.4931 68.6576 88.2371 -73.2186 -0.7333 -45.8593 -2.6451 -28.2227 41.365 48.0742 
1.45695 -1.37518 -8.83191 -180 -86.6647 -180 0 -1.186 -1.5018 -0.0281809 10.5779 -0.163837 0 9.964 0.2134 -0.0256354 21.1557 -0.330983 4.44089e-016 13.134 -3.2573 -0.0256356 21.1557 -0.330983 2.22045e-016 20.686 -1.6905 1.55379 8.04998 -49.1419 0 7.238 -0.1237 -0.102631 1.21348 9.3162 1.7069 20.075 5.0056 -8.00932 0.115243 9.52542 13.6458 -0.047 -4.849 -72.338 4.13313 35.5654 28.3255 -0.9759 2.2888 34.8503 1.37771 -60.1044 22.1583 -0.53 10.8316 10.426 19.7112 -10.2434 0.786 0.112 2.5817 -7.95139e-016 5.1684e-015 -6.36111e-015 0.3601 -0.878 4.2331 0 2.78299e-015 -0 1.8127 -1.216 2.2227 1.59028e-015 -4.37326e-015 3.18055e-015 0.9571 1.114 1.7695 -7.95139e-016 4.77083e-015 -6.36111e-015 4.1246 0.487 4.1451 2.38542e-015 5.1684e-015 9.54166e-015 3.4052 -1.454 2.7682 7.95139e-016 7.95139e-016 -3.18055e-015 1.4531 -1.795 1.2713 1.59028e-015 1.19271e-015 -6.36111e-015 5.6954 0.21 2.1184 2.38542e-015 5.1684e-015 9.54166e-015 3.9766 -1.54 2.3863 7.95139e-016 7.95139e-016 -3.18055e-015 1.4042 -1.926 1.125 1.59028e-015 1.19271e-015 -6.36111e-015 2.0956 0.66 -0.3894 -7.95139e-016 4.77083e-015 -6.36111e-015 5.0395 -0.09 2.4971 2.38542e-015 5.1684e-015 9.54166e-015 3.7921 -1.552 1.4806 7.95139e-016 7.95139e-016 -3.18055e-015 1.4655 -1.808 0.9609 1.59028e-015 1.19271e-015 -6.36111e-015 4.9141 -1.269 0.3591 2.38542e-015 5.1684e-015 9.54166e-015 3.1477 -1.685 0.8462 7.95139e-016 7.95139e-016 -3.18055e-015 0.8055 -1.585 0.7955 1.59028e-015 1.19271e-015 -6.36111e-015 -1.7069 20.075 5.0056 3.57755 -8.11302 7.93353 -13.6458 -0.047 -4.849 57.895 30.7004 22.2954 -28.3255 -0.9759 2.2888 40.0747 2.09507 48.1439 -22.1583 -0.53 10.8316 -31.1412 -6.61822 -11.9915 -0.786 0.112 2.5817 1.59028e-015 -1.83876e-015 8.94531e-016 -0.3601 -0.878 4.2331 3.18055e-015 2.65874e-015 -9.93923e-017 -1.8127 -1.216 2.2227 3.18055e-015 4.12478e-015 6.95746e-016 -0.9571 1.114 1.7695 1.59028e-015 -3.42904e-015 8.94531e-016 -4.1246 0.487 4.1451 3.18055e-015 2.73329e-015 -1.98785e-016 -3.4052 -1.454 2.7682 4.77083e-015 2.6339e-015 2.98177e-016 -1.4531 -1.795 1.2713 1.59028e-015 4.00054e-015 9.93923e-017 -5.6954 0.21 2.1184 3.18055e-015 2.73329e-015 -1.98785e-016 -3.9766 -1.54 2.3863 4.77083e-015 2.6339e-015 2.98177e-016 -1.4042 -1.926 1.125 1.59028e-015 4.00054e-015 9.93923e-017 -2.0956 0.66 -0.3894 1.59028e-015 -3.42904e-015 8.94531e-016 -5.0395 -0.09 2.4971 3.18055e-015 2.73329e-015 -1.98785e-016 -3.7921 -1.552 1.4806 4.77083e-015 2.6339e-015 2.98177e-016 -1.4655 -1.808 0.9609 1.59028e-015 4.00054e-015 9.93923e-017 -4.9141 -1.269 0.3592 3.18055e-015 2.73329e-015 -1.98785e-016 -3.1477 -1.685 0.8462 4.77083e-015 2.6339e-015 2.98177e-016 -0.8055 -1.585 0.7955 1.59028e-015 4.00054e-015 9.93923e-017 8.367 -8.2066 0.5982 5.10025 -44.2065 -11.1711 2.1923 -43.463 -0.4932 -168.392 61.6104 175.428 0.7333 -45.8593 -2.6451 19.5346 2.58672 7.3894 -8.367 -8.2066 0.5982 -41.3323 -47.2304 -9.87642 -2.1923 -43.463 -0.4931 172.178 76.136 -177.162 -0.7333 -45.8593 -2.6451 -39.0732 43.4409 59.8855 
1.35665 2.15672 -8.7994 -180 -89.9981 -180 0 -1.186 -1.5018 -0.0329124 10.0734 -0.157143 0 9.964 0.2134 -0.0381524 20.1468 -0.315816 2.22045e-016 13.134 -3.2573 -0.0381525 20.1468 -0.315816 0 20.686 -1.6905 0.741881 7.51165 -47.303 -7.10543e-015 7.238 -0.1237 -0.0676181 1.87725 8.97005 1.7069 20.075 5.0056 -7.70697 0.552051 9.47925 13.6458 -0.047 -4.849 -69.6295 4.02416 34.4961 28.3255 -0.9759 2.2888 33.4649 2.41389 -57.6324 22.1583 -0.53 10.8316 9.87429 19.325 -9.8628 0.786 0.112 2.5817 -3.18055e-015 1.59028e-015 6.36111e-015 0.3601 -0.878 4.2331 2.25386e-006 -6.46664e-007 -5.68803e-007 1.8127 -1.216 2.2227 -3.97569e-016 1.59028e-015 -0 0.9571 1.114 1.7695 -3.18055e-015 6.55989e-015 6.36111e-015 4.1246 0.487 4.1451 -2.78299e-015 -1.07344e-014 6.36111e-015 3.4052 -1.454 2.7682 2.25386e-006 -6.46664e-007 -5.68803e-007 1.4531 -1.795 1.2713 2.3173e-031 -4.17448e-015 3.18055e-015 5.6954 0.21 2.1184 -2.78299e-015 -1.07344e-014 6.36111e-015 3.9766 -1.54 2.3863 2.25386e-006 -6.46664e-007 -5.68803e-007 1.4042 -1.926 1.125 2.3173e-031 -4.17448e-015 3.18055e-015 2.0956 0.66 -0.3894 -3.18055e-015 6.55989e-015 6.36111e-015 5.0395 -0.09 2.4971 -2.78299e-015 -1.07344e-014 6.36111e-015 3.7921 -1.552 1.4806 2.25386e-006 -6.46664e-007 -5.68803e-007 1.4655 -1.808 0.9609 2.3173e-031 -4.17448e-015 3.18055e-015 4.9141 -1.269 0.3591 -2.78299e-015 -1.07344e-014 6.36111e-015 3.1477 -1.685 0.8462 2.25386e-006 -6.46664e-007 -5.68803e-007 0.8055 -1.585 0.7955 2.3173e-031 -4.17448e-015 3.18055e-015 -1.7069 20.075 5.0056 3.64883 -7.21944 7.64723 -13.6458 -0.047 -4.849 56.3387 29.8241 21.0506 -28.3255 -0.9759 2.2888 38.6827 1.48166 44.7667 -22.1583 -0.53 10.8316 -28.872 -6.12858 -11.1828 -0.786 0.112 2.5817 3.18055e-015 4.17448e-015 -1.59028e-015 -0.3601 -0.878 4.2331 1.59028e-015 7.45443e-015 -1.98785e-015 -1.8127 -1.216 2.2227 1.86212e-031 4.47266e-015 -2.38542e-015 -0.9571 1.114 1.7695 6.20706e-033 8.94531e-016 -3.97569e-016 -4.1246 0.487 4.1451 1.59028e-015 -1.99779e-014 2.38542e-015 -3.4052 -1.454 2.7682 3.18055e-015 8.84592e-015 -7.95139e-016 -1.4531 -1.795 1.2713 2.78628e-031 1.00386e-014 -1.59028e-015 -5.6954 0.21 2.1184 1.59028e-015 -1.99779e-014 2.38542e-015 -3.9766 -1.54 2.3863 3.18055e-015 8.84592e-015 -7.95139e-016 -1.4042 -1.926 1.125 2.78628e-031 1.00386e-014 -1.59028e-015 -2.0956 0.66 -0.3894 6.20706e-033 8.94531e-016 -3.97569e-016 -5.0395 -0.09 2.4971 1.59028e-015 -1.99779e-014 2.38542e-015 -3.7921 -1.552 1.4806 3.18055e-015 8.84592e-015 -7.95139e-016 -1.4655 -1.808 0.9609 2.78628e-031 1.00386e-014 -1.59028e-015 -4.9141 -1.269 0.3592 1.59028e-015 -1.99779e-014 2.38542e-015 -3.1477 -1.685 0.8462 3.18055e-015 8.84592e-015 -7.95139e-016 -0.8055 -1.585 0.7955 2.78628e-031 1.00386e-014 -1.59028e-015 8.367 -8.2066 0.5982 6.04192 -42.6354 -10.2843 2.1923 -43.463 -0.4932 -166.925 65.7388 173.575 0.7333 -45.8593 -2.6451 19.3219 2.10484 6.63869 -8.367 -8.2066 0.5982 -39.812 -45.4182 -9.72953 -2.1923 -43.463 -0.4931 169.683 79.7525 -174.562 -0.7333 -45.8593 -2.6451 -36.7966 42.8985 57.1849 
